<?xml version="1.0" encoding="utf-8"?>
<!-- Generator: Adobe Illustrator 16.2.2, SVG Export Plug-In . SVG Version: 6.00 Build 0)  -->
<!DOCTYPE svg PUBLIC "-//W3C//DTD SVG 1.1//EN" "http://www.w3.org/Graphics/SVG/1.1/DTD/svg11.dtd">
<svg version="1.1" id="Layer_1" xmlns="http://www.w3.org/2000/svg" xmlns:xlink="http://www.w3.org/1999/xlink" x="0px" y="0px"
	 width="255.118px" height="198.425px" viewBox="0 0 255.118 198.425" enable-background="new 0 0 255.118 198.425"
	 xml:space="preserve">
<g>
	<circle fill="none" stroke="#015697" stroke-width="2" stroke-miterlimit="10" cx="75.684" cy="35.252" r="16.327"/>
	<g>
		<g>
			<path fill="#015697" d="M68.289,38.73h1.185c0.178,0,0.296-0.118,0.296-0.296V37.25c0-0.178-0.119-0.296-0.296-0.296h-1.185
				c-0.177,0-0.296,0.118-0.296,0.296v1.185C67.993,38.553,68.111,38.73,68.289,38.73z"/>
			<path fill="#015697" d="M68.289,41.04h1.185c0.178,0,0.296-0.118,0.296-0.296V39.56c0-0.178-0.119-0.297-0.296-0.297h-1.185
				c-0.177,0-0.296,0.119-0.296,0.297v1.184C67.993,40.921,68.111,41.04,68.289,41.04z"/>
			<path fill="#015697" d="M70.717,38.73h1.185c0.178,0,0.296-0.118,0.296-0.296V37.25c0-0.178-0.119-0.296-0.296-0.296h-1.185
				c-0.177,0-0.295,0.118-0.295,0.296v1.185C70.421,38.553,70.54,38.73,70.717,38.73z"/>
			<path fill="#015697" d="M70.717,41.04h1.185c0.178,0,0.296-0.118,0.296-0.296V39.56c0-0.178-0.119-0.297-0.296-0.297h-1.185
				c-0.177,0-0.295,0.119-0.295,0.297v1.184C70.421,40.921,70.54,41.04,70.717,41.04z"/>
			<path fill="#015697" d="M79.482,38.73h1.185c0.177,0,0.295-0.118,0.295-0.296V37.25c0-0.178-0.118-0.296-0.295-0.296h-1.185
				c-0.178,0-0.296,0.118-0.296,0.296v1.185C79.186,38.553,79.305,38.73,79.482,38.73z"/>
			<path fill="#015697" d="M79.482,41.04h1.185c0.177,0,0.295-0.118,0.295-0.296V39.56c0-0.178-0.118-0.297-0.295-0.297h-1.185
				c-0.178,0-0.296,0.119-0.296,0.297v1.184C79.186,40.921,79.305,41.04,79.482,41.04z"/>
			<path fill="#015697" d="M81.911,38.73h1.185c0.177,0,0.295-0.118,0.295-0.296V37.25c0-0.178-0.118-0.296-0.295-0.296h-1.185
				c-0.178,0-0.296,0.118-0.296,0.296v1.185C81.614,38.553,81.733,38.73,81.911,38.73z"/>
			<path fill="#015697" d="M81.911,41.04h1.185c0.177,0,0.295-0.118,0.295-0.296V39.56c0-0.178-0.118-0.297-0.295-0.297h-1.185
				c-0.178,0-0.296,0.119-0.296,0.297v1.184C81.614,40.921,81.733,41.04,81.911,41.04z"/>
			<path fill="#015697" d="M89.018,33.578l-2.488-4.264c-0.178-0.297-0.474-0.475-0.77-0.475h-5.982v-1.599l0.592,0.414
				c0.178,0.119,0.356,0.179,0.534,0.179c0.296,0,0.533-0.119,0.71-0.356c0.296-0.414,0.178-0.947-0.178-1.243l-5.211-3.79
				c-0.296-0.237-0.711-0.237-1.066,0l-5.211,3.79c-0.415,0.296-0.474,0.829-0.178,1.243c0.295,0.415,0.83,0.475,1.243,0.178
				l0.593-0.414v1.599h-5.982c-0.296,0-0.592,0.178-0.77,0.475l-2.546,4.382c-0.178,0.296-0.178,0.593,0,0.889
				c0.178,0.297,0.474,0.475,0.77,0.475h1.836v8.29c0,0.475,0.415,0.89,0.888,0.89h19.781c0.474,0,0.889-0.415,0.889-0.89v-8.29
				h1.836l0,0c0.474,0,0.888-0.415,0.888-0.889C89.195,33.933,89.135,33.755,89.018,33.578z M75.691,24.28l2.31,1.658
				c0,0,0,0,0,0.059v2.784h-4.619v-2.784c0,0,0,0,0-0.059L75.691,24.28z M84.694,42.461h-6.515v-3.494
				c0-1.362-1.125-2.429-2.428-2.429c-1.303,0-2.428,1.126-2.428,2.429v3.494h-6.515v-7.402h18.005L84.694,42.461L84.694,42.461z"/>
		</g>
	</g>
</g>
<g>
	<circle fill="none" stroke="#015697" stroke-width="2" stroke-miterlimit="10" cx="61.212" cy="150.503" r="16.327"/>
	<g>
		<g>
			<path fill="#015697" d="M53.817,153.98h1.185c0.178,0,0.296-0.117,0.296-0.295V152.5c0-0.178-0.119-0.295-0.296-0.295h-1.185
				c-0.177,0-0.296,0.117-0.296,0.295v1.186C53.521,153.804,53.64,153.98,53.817,153.98z"/>
			<path fill="#015697" d="M53.817,156.291h1.185c0.178,0,0.296-0.119,0.296-0.297v-1.184c0-0.178-0.119-0.297-0.296-0.297h-1.185
				c-0.177,0-0.296,0.119-0.296,0.297v1.184C53.521,156.171,53.64,156.291,53.817,156.291z"/>
			<path fill="#015697" d="M56.245,153.98h1.185c0.178,0,0.296-0.117,0.296-0.295V152.5c0-0.178-0.119-0.295-0.296-0.295h-1.185
				c-0.177,0-0.295,0.117-0.295,0.295v1.186C55.95,153.804,56.068,153.98,56.245,153.98z"/>
			<path fill="#015697" d="M56.245,156.291h1.185c0.178,0,0.296-0.119,0.296-0.297v-1.184c0-0.178-0.119-0.297-0.296-0.297h-1.185
				c-0.177,0-0.295,0.119-0.295,0.297v1.184C55.95,156.171,56.068,156.291,56.245,156.291z"/>
			<path fill="#015697" d="M65.011,153.98h1.185c0.177,0,0.295-0.117,0.295-0.295V152.5c0-0.178-0.118-0.295-0.295-0.295h-1.185
				c-0.178,0-0.296,0.117-0.296,0.295v1.186C64.714,153.804,64.833,153.98,65.011,153.98z"/>
			<path fill="#015697" d="M65.011,156.291h1.185c0.177,0,0.295-0.119,0.295-0.297v-1.184c0-0.178-0.118-0.297-0.295-0.297h-1.185
				c-0.178,0-0.296,0.119-0.296,0.297v1.184C64.714,156.171,64.833,156.291,65.011,156.291z"/>
			<path fill="#015697" d="M67.439,153.98h1.185c0.177,0,0.295-0.117,0.295-0.295V152.5c0-0.178-0.118-0.295-0.295-0.295h-1.185
				c-0.178,0-0.296,0.117-0.296,0.295v1.186C67.143,153.804,67.261,153.98,67.439,153.98z"/>
			<path fill="#015697" d="M67.439,156.291h1.185c0.177,0,0.295-0.119,0.295-0.297v-1.184c0-0.178-0.118-0.297-0.295-0.297h-1.185
				c-0.178,0-0.296,0.119-0.296,0.297v1.184C67.143,156.171,67.261,156.291,67.439,156.291z"/>
			<path fill="#015697" d="M74.546,148.828l-2.488-4.264c-0.178-0.297-0.474-0.475-0.77-0.475h-5.982v-1.598l0.592,0.414
				c0.178,0.119,0.356,0.178,0.534,0.178c0.296,0,0.533-0.119,0.71-0.355c0.296-0.414,0.178-0.947-0.178-1.244l-5.211-3.789
				c-0.296-0.238-0.711-0.238-1.066,0l-5.211,3.789c-0.415,0.297-0.474,0.83-0.178,1.244c0.295,0.414,0.83,0.475,1.243,0.178
				l0.593-0.414v1.598h-5.982c-0.296,0-0.592,0.178-0.77,0.475l-2.546,4.383c-0.178,0.295-0.178,0.592,0,0.889
				s0.474,0.475,0.77,0.475h1.836v8.289c0,0.475,0.415,0.891,0.888,0.891H71.11c0.474,0,0.889-0.416,0.889-0.891v-8.289h1.836l0,0
				c0.474,0,0.888-0.416,0.888-0.889C74.723,149.183,74.664,149.005,74.546,148.828z M61.22,139.531l2.31,1.658c0,0,0,0,0,0.059
				v2.783h-4.619v-2.783c0,0,0,0,0-0.059L61.22,139.531z M70.222,157.712h-6.515v-3.494c0-1.363-1.125-2.43-2.428-2.43
				c-1.303,0-2.428,1.127-2.428,2.43v3.494h-6.515v-7.402h18.005L70.222,157.712L70.222,157.712z"/>
		</g>
	</g>
</g>
<g>
	<circle fill="none" stroke="#015697" stroke-width="2" stroke-miterlimit="10" cx="158.848" cy="180.836" r="16.326"/>
	<g>
		<g>
			<path fill="#015697" d="M151.453,184.313h1.185c0.178,0,0.297-0.117,0.297-0.295v-1.186c0-0.178-0.119-0.295-0.297-0.295h-1.185
				c-0.177,0-0.296,0.117-0.296,0.295v1.186C151.157,184.137,151.276,184.313,151.453,184.313z"/>
			<path fill="#015697" d="M151.453,186.624h1.185c0.178,0,0.297-0.119,0.297-0.297v-1.184c0-0.178-0.119-0.297-0.297-0.297h-1.185
				c-0.177,0-0.296,0.119-0.296,0.297v1.184C151.157,186.504,151.276,186.624,151.453,186.624z"/>
			<path fill="#015697" d="M153.881,184.313h1.184c0.178,0,0.297-0.117,0.297-0.295v-1.186c0-0.178-0.119-0.295-0.297-0.295h-1.184
				c-0.178,0-0.296,0.117-0.296,0.295v1.186C153.585,184.137,153.704,184.313,153.881,184.313z"/>
			<path fill="#015697" d="M153.881,186.624h1.184c0.178,0,0.297-0.119,0.297-0.297v-1.184c0-0.178-0.119-0.297-0.297-0.297h-1.184
				c-0.178,0-0.296,0.119-0.296,0.297v1.184C153.585,186.504,153.704,186.624,153.881,186.624z"/>
			<path fill="#015697" d="M162.647,184.313h1.184c0.178,0,0.296-0.117,0.296-0.295v-1.186c0-0.178-0.118-0.295-0.296-0.295h-1.184
				c-0.178,0-0.297,0.117-0.297,0.295v1.186C162.35,184.137,162.469,184.313,162.647,184.313z"/>
			<path fill="#015697" d="M162.647,186.624h1.184c0.178,0,0.296-0.119,0.296-0.297v-1.184c0-0.178-0.118-0.297-0.296-0.297h-1.184
				c-0.178,0-0.297,0.119-0.297,0.297v1.184C162.35,186.504,162.469,186.624,162.647,186.624z"/>
			<path fill="#015697" d="M165.075,184.313h1.185c0.177,0,0.296-0.117,0.296-0.295v-1.186c0-0.178-0.119-0.295-0.296-0.295h-1.185
				c-0.178,0-0.297,0.117-0.297,0.295v1.186C164.778,184.137,164.897,184.313,165.075,184.313z"/>
			<path fill="#015697" d="M165.075,186.624h1.185c0.177,0,0.296-0.119,0.296-0.297v-1.184c0-0.178-0.119-0.297-0.296-0.297h-1.185
				c-0.178,0-0.297,0.119-0.297,0.297v1.184C164.778,186.504,164.897,186.624,165.075,186.624z"/>
			<path fill="#015697" d="M172.182,179.161l-2.488-4.264c-0.178-0.297-0.475-0.475-0.77-0.475h-5.982v-1.598l0.592,0.414
				c0.178,0.119,0.357,0.178,0.534,0.178c0.296,0,0.532-0.119,0.71-0.355c0.297-0.414,0.178-0.947-0.178-1.244l-5.211-3.789
				c-0.297-0.238-0.711-0.238-1.066,0l-5.211,3.789c-0.416,0.297-0.475,0.83-0.178,1.244c0.295,0.414,0.829,0.475,1.242,0.178
				l0.594-0.414v1.598h-5.982c-0.296,0-0.592,0.178-0.77,0.475l-2.547,4.383c-0.178,0.295-0.178,0.592,0,0.889
				s0.474,0.475,0.77,0.475h1.836v8.289c0,0.475,0.415,0.891,0.889,0.891h19.781c0.473,0,0.889-0.416,0.889-0.891v-8.289h1.836l0,0
				c0.473,0,0.888-0.416,0.888-0.889C172.359,179.516,172.299,179.338,172.182,179.161z M158.856,169.864l2.31,1.658
				c0,0,0,0,0,0.059v2.783h-4.619v-2.783c0,0,0,0,0-0.059L158.856,169.864z M167.858,188.045h-6.515v-3.494
				c0-1.363-1.125-2.43-2.429-2.43c-1.303,0-2.428,1.127-2.428,2.43v3.494h-6.515v-7.402h18.005L167.858,188.045L167.858,188.045z"
				/>
		</g>
	</g>
</g>
<g>
	<circle fill="none" stroke="#015697" stroke-width="2" stroke-miterlimit="10" cx="20.267" cy="84.786" r="18.91"/>
	<g>
		<g>
			<path fill="#015697" d="M11.702,89.13h1.372c0.206,0,0.343-0.137,0.343-0.343v-1.372c0-0.206-0.137-0.343-0.343-0.343h-1.372
				c-0.205,0-0.343,0.137-0.343,0.343v1.372C11.359,88.925,11.497,89.13,11.702,89.13z"/>
			<path fill="#015697" d="M11.702,91.805h1.372c0.206,0,0.343-0.137,0.343-0.343v-1.371c0-0.206-0.137-0.344-0.343-0.344h-1.372
				c-0.205,0-0.343,0.138-0.343,0.344v1.371C11.359,91.668,11.497,91.805,11.702,91.805z"/>
			<path fill="#015697" d="M14.514,89.13h1.372c0.206,0,0.343-0.137,0.343-0.343v-1.372c0-0.206-0.138-0.343-0.343-0.343h-1.372
				c-0.206,0-0.342,0.137-0.342,0.343v1.372C14.172,88.925,14.309,89.13,14.514,89.13z"/>
			<path fill="#015697" d="M14.514,91.805h1.372c0.206,0,0.343-0.137,0.343-0.343v-1.371c0-0.206-0.138-0.344-0.343-0.344h-1.372
				c-0.206,0-0.342,0.138-0.342,0.344v1.371C14.172,91.668,14.309,91.805,14.514,91.805z"/>
			<path fill="#015697" d="M24.667,89.13h1.372c0.206,0,0.342-0.137,0.342-0.343v-1.372c0-0.206-0.137-0.343-0.342-0.343h-1.372
				c-0.206,0-0.343,0.137-0.343,0.343v1.372C24.323,88.925,24.461,89.13,24.667,89.13z"/>
			<path fill="#015697" d="M24.667,91.805h1.372c0.206,0,0.342-0.137,0.342-0.343v-1.371c0-0.206-0.137-0.344-0.342-0.344h-1.372
				c-0.206,0-0.343,0.138-0.343,0.344v1.371C24.323,91.668,24.461,91.805,24.667,91.805z"/>
			<path fill="#015697" d="M27.479,89.13h1.372c0.205,0,0.342-0.137,0.342-0.343v-1.372c0-0.206-0.137-0.343-0.342-0.343h-1.372
				c-0.206,0-0.343,0.137-0.343,0.343v1.372C27.136,88.925,27.273,89.13,27.479,89.13z"/>
			<path fill="#015697" d="M27.479,91.805h1.372c0.205,0,0.342-0.137,0.342-0.343v-1.371c0-0.206-0.137-0.344-0.342-0.344h-1.372
				c-0.206,0-0.343,0.138-0.343,0.344v1.371C27.136,91.668,27.273,91.805,27.479,91.805z"/>
			<path fill="#015697" d="M35.71,83.162l-2.881-4.938c-0.206-0.344-0.549-0.549-0.891-0.549h-6.929v-1.852l0.686,0.479
				c0.206,0.138,0.413,0.207,0.618,0.207c0.343,0,0.617-0.138,0.823-0.413c0.343-0.479,0.206-1.097-0.206-1.44l-6.036-4.39
				c-0.343-0.275-0.824-0.275-1.235,0l-6.036,4.39c-0.481,0.343-0.549,0.96-0.206,1.44c0.342,0.481,0.961,0.55,1.44,0.206
				l0.687-0.479v1.852H8.615c-0.342,0-0.686,0.206-0.892,0.549l-2.949,5.075c-0.206,0.343-0.206,0.687,0,1.029
				c0.206,0.344,0.548,0.55,0.892,0.55h2.126v9.602c0,0.55,0.48,1.031,1.029,1.031h22.911c0.548,0,1.029-0.481,1.029-1.031v-9.602
				h2.126l0,0c0.548,0,1.029-0.48,1.029-1.029C35.916,83.574,35.847,83.368,35.71,83.162z M20.276,72.393l2.675,1.921
				c0,0,0,0,0,0.067v3.225h-5.35v-3.225c0,0,0,0,0-0.067L20.276,72.393z M30.703,93.452h-7.545v-4.047
				c0-1.578-1.303-2.813-2.812-2.813c-1.509,0-2.812,1.304-2.812,2.813v4.047H9.987v-8.574h20.854L30.703,93.452L30.703,93.452z"/>
		</g>
	</g>
</g>
<g>
	<circle fill="none" stroke="#015697" stroke-width="2" stroke-miterlimit="10" cx="231.788" cy="134.592" r="21.243"/>
	<g>
		<g>
			<path fill="#015697" d="M222.166,139.719h1.54c0.233,0,0.387-0.154,0.387-0.386v-1.54c0-0.232-0.153-0.387-0.387-0.387h-1.54
				c-0.23,0-0.386,0.154-0.386,0.387v1.54C221.78,139.489,221.935,139.719,222.166,139.719z"/>
			<path fill="#015697" d="M222.166,142.723h1.54c0.233,0,0.387-0.153,0.387-0.384v-1.54c0-0.231-0.153-0.387-0.387-0.387h-1.54
				c-0.23,0-0.386,0.155-0.386,0.387v1.54C221.78,142.57,221.935,142.723,222.166,142.723z"/>
			<path fill="#015697" d="M225.326,139.719h1.54c0.231,0,0.386-0.154,0.386-0.386v-1.54c0-0.232-0.154-0.387-0.386-0.387h-1.54
				c-0.231,0-0.386,0.154-0.386,0.387v1.54C224.94,139.489,225.094,139.719,225.326,139.719z"/>
			<path fill="#015697" d="M225.326,142.723h1.54c0.231,0,0.386-0.153,0.386-0.384v-1.54c0-0.231-0.154-0.387-0.386-0.387h-1.54
				c-0.231,0-0.386,0.155-0.386,0.387v1.54C224.94,142.57,225.094,142.723,225.326,142.723z"/>
			<path fill="#015697" d="M236.73,139.719h1.541c0.231,0,0.385-0.154,0.385-0.386v-1.54c0-0.232-0.153-0.387-0.385-0.387h-1.541
				c-0.231,0-0.386,0.154-0.386,0.387v1.54C236.344,139.489,236.499,139.719,236.73,139.719z"/>
			<path fill="#015697" d="M236.73,142.723h1.541c0.231,0,0.385-0.153,0.385-0.384v-1.54c0-0.231-0.153-0.387-0.385-0.387h-1.541
				c-0.231,0-0.386,0.155-0.386,0.387v1.54C236.344,142.57,236.499,142.723,236.73,142.723z"/>
			<path fill="#015697" d="M239.89,139.719h1.54c0.23,0,0.385-0.154,0.385-0.386v-1.54c0-0.232-0.154-0.387-0.385-0.387h-1.54
				c-0.231,0-0.387,0.154-0.387,0.387v1.54C239.503,139.489,239.659,139.719,239.89,139.719z"/>
			<path fill="#015697" d="M239.89,142.723h1.54c0.23,0,0.385-0.153,0.385-0.384v-1.54c0-0.231-0.154-0.387-0.385-0.387h-1.54
				c-0.231,0-0.387,0.155-0.387,0.387v1.54C239.503,142.57,239.659,142.723,239.89,142.723z"/>
			<path fill="#015697" d="M249.136,133.014l-3.236-5.547c-0.231-0.386-0.617-0.617-1.001-0.617h-7.784v-2.08l0.77,0.538
				c0.232,0.155,0.464,0.233,0.695,0.233c0.385,0,0.693-0.156,0.924-0.465c0.387-0.538,0.231-1.231-0.23-1.618l-6.781-4.93
				c-0.386-0.31-0.927-0.31-1.387,0l-6.781,4.93c-0.541,0.387-0.618,1.08-0.231,1.618c0.384,0.541,1.079,0.618,1.617,0.231
				l0.772-0.538v2.08h-7.785c-0.384,0-0.771,0.231-1.001,0.617l-3.312,5.7c-0.232,0.387-0.232,0.772,0,1.156
				c0.23,0.388,0.615,0.619,1,0.619h2.39v10.786c0,0.617,0.54,1.158,1.156,1.158h25.737c0.616,0,1.156-0.541,1.156-1.158v-10.786
				h2.39l0,0c0.615,0,1.155-0.54,1.155-1.156C249.368,133.477,249.29,133.247,249.136,133.014z M231.798,120.917l3.005,2.158
				c0,0,0,0,0,0.076v3.623h-6.01v-3.623c0,0,0,0,0-0.076L231.798,120.917z M243.51,144.574h-8.476v-4.546
				c0-1.772-1.464-3.16-3.16-3.16c-1.694,0-3.159,1.465-3.159,3.16v4.546h-8.476v-9.631h23.427L243.51,144.574L243.51,144.574z"/>
		</g>
	</g>
</g>
<g>
	<circle fill="none" stroke="#015697" stroke-width="2" stroke-miterlimit="10" cx="237.434" cy="28.252" r="16.327"/>
	<g>
		<g>
			<path fill="#015697" d="M230.038,31.73h1.186c0.178,0,0.296-0.118,0.296-0.296V30.25c0-0.178-0.118-0.296-0.296-0.296h-1.186
				c-0.177,0-0.295,0.118-0.295,0.296v1.185C229.743,31.553,229.861,31.73,230.038,31.73z"/>
			<path fill="#015697" d="M230.038,34.04h1.186c0.178,0,0.296-0.118,0.296-0.296V32.56c0-0.178-0.118-0.297-0.296-0.297h-1.186
				c-0.177,0-0.295,0.119-0.295,0.297v1.184C229.743,33.921,229.861,34.04,230.038,34.04z"/>
			<path fill="#015697" d="M232.466,31.73h1.185c0.178,0,0.297-0.118,0.297-0.296V30.25c0-0.178-0.119-0.296-0.297-0.296h-1.185
				c-0.177,0-0.296,0.118-0.296,0.296v1.185C232.17,31.553,232.29,31.73,232.466,31.73z"/>
			<path fill="#015697" d="M232.466,34.04h1.185c0.178,0,0.297-0.118,0.297-0.296V32.56c0-0.178-0.119-0.297-0.297-0.297h-1.185
				c-0.177,0-0.296,0.119-0.296,0.297v1.184C232.17,33.921,232.29,34.04,232.466,34.04z"/>
			<path fill="#015697" d="M241.232,31.73h1.185c0.178,0,0.295-0.118,0.295-0.296V30.25c0-0.178-0.117-0.296-0.295-0.296h-1.185
				c-0.178,0-0.296,0.118-0.296,0.296v1.185C240.936,31.553,241.054,31.73,241.232,31.73z"/>
			<path fill="#015697" d="M241.232,34.04h1.185c0.178,0,0.295-0.118,0.295-0.296V32.56c0-0.178-0.117-0.297-0.295-0.297h-1.185
				c-0.178,0-0.296,0.119-0.296,0.297v1.184C240.936,33.921,241.054,34.04,241.232,34.04z"/>
			<path fill="#015697" d="M243.661,31.73h1.184c0.178,0,0.296-0.118,0.296-0.296V30.25c0-0.178-0.118-0.296-0.296-0.296h-1.184
				c-0.178,0-0.297,0.118-0.297,0.296v1.185C243.364,31.553,243.483,31.73,243.661,31.73z"/>
			<path fill="#015697" d="M243.661,34.04h1.184c0.178,0,0.296-0.118,0.296-0.296V32.56c0-0.178-0.118-0.297-0.296-0.297h-1.184
				c-0.178,0-0.297,0.119-0.297,0.297v1.184C243.364,33.921,243.483,34.04,243.661,34.04z"/>
			<path fill="#015697" d="M250.767,26.578l-2.487-4.264c-0.178-0.297-0.475-0.475-0.77-0.475h-5.982v-1.599l0.592,0.414
				c0.178,0.119,0.356,0.179,0.533,0.179c0.297,0,0.533-0.119,0.711-0.356c0.297-0.414,0.178-0.947-0.178-1.243l-5.211-3.79
				c-0.297-0.237-0.712-0.237-1.066,0l-5.212,3.79c-0.415,0.296-0.474,0.829-0.178,1.243c0.296,0.415,0.829,0.475,1.243,0.178
				l0.593-0.414v1.599h-5.981c-0.297,0-0.593,0.178-0.771,0.475l-2.546,4.382c-0.178,0.296-0.178,0.593,0,0.889
				c0.178,0.297,0.473,0.475,0.77,0.475h1.836v8.29c0,0.475,0.414,0.89,0.889,0.89h19.78c0.474,0,0.889-0.415,0.889-0.89v-8.29
				h1.836l0,0c0.474,0,0.888-0.415,0.888-0.889C250.944,26.933,250.885,26.755,250.767,26.578z M237.441,17.28l2.31,1.658
				c0,0,0,0,0,0.059v2.784h-4.619v-2.784c0,0,0,0,0-0.059L237.441,17.28z M246.444,35.461h-6.516v-3.494
				c0-1.362-1.125-2.429-2.428-2.429s-2.428,1.126-2.428,2.429v3.494h-6.516v-7.402h18.006L246.444,35.461L246.444,35.461z"/>
		</g>
	</g>
</g>
<g>
	<circle fill="none" stroke="#015697" stroke-width="2" stroke-miterlimit="10" cx="160.479" cy="18.631" r="17.371"/>
	<g>
		<g>
			<path fill="#015697" d="M152.61,22.459h1.261c0.189,0,0.316-0.126,0.316-0.315v-1.26c0-0.189-0.127-0.315-0.316-0.315h-1.261
				c-0.188,0-0.314,0.125-0.314,0.315v1.26C152.295,22.271,152.422,22.459,152.61,22.459z"/>
			<path fill="#015697" d="M152.61,24.917h1.261c0.189,0,0.316-0.125,0.316-0.314v-1.259c0-0.189-0.127-0.316-0.316-0.316h-1.261
				c-0.188,0-0.314,0.126-0.314,0.316v1.259C152.295,24.791,152.422,24.917,152.61,24.917z"/>
			<path fill="#015697" d="M155.195,22.459h1.259c0.189,0,0.316-0.126,0.316-0.315v-1.26c0-0.189-0.127-0.315-0.316-0.315h-1.259
				c-0.189,0-0.315,0.125-0.315,0.315v1.26C154.879,22.271,155.005,22.459,155.195,22.459z"/>
			<path fill="#015697" d="M155.195,24.917h1.259c0.189,0,0.316-0.125,0.316-0.314v-1.259c0-0.189-0.127-0.316-0.316-0.316h-1.259
				c-0.189,0-0.315,0.126-0.315,0.316v1.259C154.879,24.791,155.005,24.917,155.195,24.917z"/>
			<path fill="#015697" d="M164.521,22.459h1.26c0.189,0,0.314-0.126,0.314-0.315v-1.26c0-0.189-0.125-0.315-0.314-0.315h-1.26
				c-0.188,0-0.315,0.125-0.315,0.315v1.26C164.206,22.271,164.333,22.459,164.521,22.459z"/>
			<path fill="#015697" d="M164.521,24.917h1.26c0.189,0,0.314-0.125,0.314-0.314v-1.259c0-0.189-0.125-0.316-0.314-0.316h-1.26
				c-0.188,0-0.315,0.126-0.315,0.316v1.259C164.206,24.791,164.333,24.917,164.521,24.917z"/>
			<path fill="#015697" d="M167.104,22.459h1.261c0.188,0,0.314-0.126,0.314-0.315v-1.26c0-0.189-0.126-0.315-0.314-0.315h-1.261
				c-0.188,0-0.315,0.125-0.315,0.315v1.26C166.789,22.271,166.916,22.459,167.104,22.459z"/>
			<path fill="#015697" d="M167.104,24.917h1.261c0.188,0,0.314-0.125,0.314-0.314v-1.259c0-0.189-0.126-0.316-0.314-0.316h-1.261
				c-0.188,0-0.315,0.126-0.315,0.316v1.259C166.789,24.791,166.916,24.917,167.104,24.917z"/>
			<path fill="#015697" d="M174.667,16.977l-2.647-4.537c-0.188-0.316-0.505-0.505-0.818-0.505h-6.365v-1.701l0.629,0.441
				c0.189,0.126,0.381,0.19,0.568,0.19c0.315,0,0.566-0.126,0.756-0.379c0.315-0.44,0.189-1.008-0.189-1.323l-5.544-4.033
				c-0.316-0.252-0.757-0.252-1.135,0l-5.545,4.033c-0.442,0.315-0.505,0.882-0.188,1.323c0.313,0.442,0.882,0.505,1.321,0.189
				l0.632-0.441v1.701h-6.365c-0.315,0-0.63,0.189-0.819,0.505l-2.71,4.663c-0.188,0.314-0.188,0.63,0,0.945
				c0.189,0.316,0.504,0.505,0.819,0.505h1.953v8.821c0,0.505,0.441,0.947,0.945,0.947h21.048c0.503,0,0.945-0.441,0.945-0.947
				v-8.821h1.954l0,0c0.503,0,0.944-0.441,0.944-0.945C174.855,17.355,174.792,17.167,174.667,16.977z M160.488,7.084l2.457,1.765
				c0,0,0,0,0,0.062v2.962h-4.915V8.911c0,0,0,0,0-0.062L160.488,7.084z M170.066,26.43h-6.932v-3.718
				c0-1.45-1.197-2.584-2.584-2.584s-2.584,1.198-2.584,2.584v3.718h-6.932v-7.876h19.158L170.066,26.43L170.066,26.43z"/>
		</g>
	</g>
</g>
<g>
	<path fill="none" stroke="#015697" stroke-width="2" stroke-miterlimit="10" d="M162.574,100.157
		c0,14.424-11.693,26.119-26.121,26.119s-26.121-11.695-26.121-26.119c0-14.428,11.694-26.123,26.121-26.123
		S162.574,85.729,162.574,100.157z"/>
	<g>
		<g>
			<path fill="#015697" d="M124.621,105.918h1.896c0.285,0,0.476-0.188,0.476-0.472v-1.895c0-0.285-0.191-0.475-0.476-0.475h-1.896
				c-0.282,0-0.473,0.189-0.473,0.475v1.895C124.148,105.637,124.339,105.918,124.621,105.918z"/>
			<path fill="#015697" d="M124.621,109.613h1.896c0.285,0,0.476-0.188,0.476-0.472v-1.893c0-0.284-0.191-0.475-0.476-0.475h-1.896
				c-0.282,0-0.473,0.19-0.473,0.475v1.893C124.148,109.425,124.339,109.613,124.621,109.613z"/>
			<path fill="#015697" d="M128.508,105.918h1.892c0.285,0,0.476-0.188,0.476-0.472v-1.895c0-0.285-0.191-0.475-0.476-0.475h-1.892
				c-0.286,0-0.475,0.189-0.475,0.475v1.895C128.033,105.637,128.222,105.918,128.508,105.918z"/>
			<path fill="#015697" d="M128.508,109.613h1.892c0.285,0,0.476-0.188,0.476-0.472v-1.893c0-0.284-0.191-0.475-0.476-0.475h-1.892
				c-0.286,0-0.475,0.19-0.475,0.475v1.893C128.033,109.425,128.222,109.613,128.508,109.613z"/>
			<path fill="#015697" d="M142.531,105.918h1.894c0.284,0,0.473-0.188,0.473-0.472v-1.895c0-0.285-0.188-0.475-0.473-0.475h-1.894
				c-0.284,0-0.475,0.189-0.475,0.475v1.895C142.056,105.637,142.247,105.918,142.531,105.918z"/>
			<path fill="#015697" d="M142.531,109.613h1.894c0.284,0,0.473-0.188,0.473-0.472v-1.893c0-0.284-0.188-0.475-0.473-0.475h-1.894
				c-0.284,0-0.475,0.19-0.475,0.475v1.893C142.056,109.425,142.247,109.613,142.531,109.613z"/>
			<path fill="#015697" d="M146.416,105.918h1.895c0.284,0,0.474-0.188,0.474-0.472v-1.895c0-0.285-0.189-0.475-0.474-0.475h-1.895
				c-0.284,0-0.475,0.189-0.475,0.475v1.895C145.941,105.637,146.131,105.918,146.416,105.918z"/>
			<path fill="#015697" d="M146.416,109.613h1.895c0.284,0,0.474-0.188,0.474-0.472v-1.893c0-0.284-0.189-0.475-0.474-0.475h-1.895
				c-0.284,0-0.475,0.19-0.475,0.475v1.893C145.941,109.425,146.131,109.613,146.416,109.613z"/>
			<path fill="#015697" d="M157.786,97.675l-3.979-6.82c-0.285-0.475-0.761-0.759-1.23-0.759h-9.572v-2.558l0.945,0.663
				c0.285,0.19,0.573,0.286,0.855,0.286c0.475,0,0.852-0.19,1.137-0.571c0.475-0.662,0.284-1.515-0.285-1.989l-8.336-6.063
				c-0.476-0.38-1.138-0.38-1.707,0l-8.337,6.063c-0.666,0.474-0.759,1.327-0.283,1.989c0.472,0.665,1.326,0.76,1.987,0.285
				l0.95-0.663v2.558h-9.571c-0.475,0-0.947,0.284-1.232,0.759l-4.075,7.011c-0.283,0.474-0.283,0.948,0,1.422
				c0.285,0.475,0.758,0.758,1.232,0.758h2.937v13.266c0,0.758,0.664,1.422,1.421,1.422h31.65c0.754,0,1.42-0.664,1.42-1.422
				v-13.266h2.938l0,0c0.758,0,1.422-0.663,1.422-1.422C158.071,98.245,157.973,97.96,157.786,97.675z M136.466,82.8l3.694,2.654
				c0,0,0,0,0,0.093v4.454h-7.39v-4.454c0,0,0,0,0-0.093L136.466,82.8z M150.87,111.889h-10.424V106.3
				c0-2.182-1.8-3.888-3.886-3.888c-2.085,0-3.885,1.804-3.885,3.888v5.589h-10.423v-11.844h28.808L150.87,111.889L150.87,111.889z"
				/>
		</g>
	</g>
</g>
<g>
	<circle fill="none" stroke="#015697" stroke-width="2" stroke-miterlimit="10" cx="120.809" cy="49.127" r="13.118"/>
	<g>
		<g>
			<path fill="#015697" d="M114.867,52.528h0.952c0.143,0,0.238-0.095,0.238-0.238v-0.952c0-0.143-0.095-0.238-0.238-0.238h-0.952
				c-0.143,0-0.238,0.095-0.238,0.238v0.952C114.629,52.386,114.724,52.528,114.867,52.528z"/>
			<path fill="#015697" d="M114.867,54.384h0.952c0.143,0,0.238-0.095,0.238-0.238v-0.951c0-0.143-0.095-0.239-0.238-0.239h-0.952
				c-0.143,0-0.238,0.096-0.238,0.239v0.951C114.629,54.289,114.724,54.384,114.867,54.384z"/>
			<path fill="#015697" d="M116.818,52.528h0.952c0.143,0,0.238-0.095,0.238-0.238v-0.952c0-0.143-0.095-0.238-0.238-0.238h-0.952
				c-0.143,0-0.238,0.095-0.238,0.238v0.952C116.58,52.386,116.675,52.528,116.818,52.528z"/>
			<path fill="#015697" d="M116.818,54.384h0.952c0.143,0,0.238-0.095,0.238-0.238v-0.951c0-0.143-0.095-0.239-0.238-0.239h-0.952
				c-0.143,0-0.238,0.096-0.238,0.239v0.951C116.58,54.289,116.675,54.384,116.818,54.384z"/>
			<path fill="#015697" d="M123.861,52.528h0.952c0.143,0,0.237-0.095,0.237-0.238v-0.952c0-0.143-0.095-0.238-0.237-0.238h-0.952
				c-0.143,0-0.238,0.095-0.238,0.238v0.952C123.623,52.386,123.718,52.528,123.861,52.528z"/>
			<path fill="#015697" d="M123.861,54.384h0.952c0.143,0,0.237-0.095,0.237-0.238v-0.951c0-0.143-0.095-0.239-0.237-0.239h-0.952
				c-0.143,0-0.238,0.096-0.238,0.239v0.951C123.623,54.289,123.718,54.384,123.861,54.384z"/>
			<path fill="#015697" d="M125.812,52.528h0.952c0.143,0,0.237-0.095,0.237-0.238v-0.952c0-0.143-0.095-0.238-0.237-0.238h-0.952
				c-0.143,0-0.238,0.095-0.238,0.238v0.952C125.574,52.386,125.669,52.528,125.812,52.528z"/>
			<path fill="#015697" d="M125.812,54.384h0.952c0.143,0,0.237-0.095,0.237-0.238v-0.951c0-0.143-0.095-0.239-0.237-0.239h-0.952
				c-0.143,0-0.238,0.096-0.238,0.239v0.951C125.574,54.289,125.669,54.384,125.812,54.384z"/>
			<path fill="#015697" d="M131.522,48.388l-1.999-3.426c-0.143-0.238-0.381-0.381-0.619-0.381h-4.806v-1.284l0.476,0.333
				c0.143,0.096,0.286,0.144,0.429,0.144c0.238,0,0.428-0.096,0.571-0.286c0.238-0.333,0.143-0.761-0.143-0.999l-4.188-3.045
				c-0.238-0.19-0.572-0.19-0.857,0l-4.188,3.045c-0.333,0.238-0.381,0.666-0.143,0.999c0.237,0.333,0.667,0.381,0.999,0.143
				l0.477-0.333v1.284h-4.807c-0.238,0-0.476,0.143-0.619,0.381l-2.046,3.521c-0.143,0.238-0.143,0.476,0,0.714
				c0.143,0.239,0.38,0.381,0.619,0.381h1.475v6.661c0,0.381,0.333,0.715,0.714,0.715h15.894c0.381,0,0.714-0.333,0.714-0.715
				v-6.661h1.475l0,0c0.38,0,0.713-0.333,0.713-0.714C131.665,48.674,131.617,48.531,131.522,48.388z M120.815,40.917l1.856,1.333
				c0,0,0,0,0,0.047v2.237h-3.711v-2.237c0,0,0,0,0-0.047L120.815,40.917z M128.048,55.526h-5.235v-2.808
				c0-1.094-0.904-1.951-1.951-1.951s-1.951,0.905-1.951,1.951v2.808h-5.234v-5.948h14.467L128.048,55.526L128.048,55.526z"/>
		</g>
	</g>
</g>
<g>
	<circle fill="none" stroke="#015697" stroke-width="2" stroke-miterlimit="10" cx="74.725" cy="95.127" r="13.118"/>
	<g>
		<g>
			<path fill="#015697" d="M68.783,98.528h0.952c0.143,0,0.238-0.095,0.238-0.238v-0.952c0-0.143-0.095-0.238-0.238-0.238h-0.952
				c-0.143,0-0.238,0.095-0.238,0.238v0.952C68.545,98.386,68.641,98.528,68.783,98.528z"/>
			<path fill="#015697" d="M68.783,100.383h0.952c0.143,0,0.238-0.094,0.238-0.237v-0.95c0-0.144-0.095-0.239-0.238-0.239h-0.952
				c-0.143,0-0.238,0.096-0.238,0.239v0.95C68.545,100.29,68.641,100.383,68.783,100.383z"/>
			<path fill="#015697" d="M70.734,98.528h0.952c0.143,0,0.238-0.095,0.238-0.238v-0.952c0-0.143-0.095-0.238-0.238-0.238h-0.952
				c-0.143,0-0.238,0.095-0.238,0.238v0.952C70.497,98.386,70.592,98.528,70.734,98.528z"/>
			<path fill="#015697" d="M70.734,100.383h0.952c0.143,0,0.238-0.094,0.238-0.237v-0.95c0-0.144-0.095-0.239-0.238-0.239h-0.952
				c-0.143,0-0.238,0.096-0.238,0.239v0.95C70.497,100.29,70.592,100.383,70.734,100.383z"/>
			<path fill="#015697" d="M77.777,98.528h0.952c0.143,0,0.237-0.095,0.237-0.238v-0.952c0-0.143-0.095-0.238-0.237-0.238h-0.952
				c-0.143,0-0.238,0.095-0.238,0.238v0.952C77.539,98.386,77.634,98.528,77.777,98.528z"/>
			<path fill="#015697" d="M77.777,100.383h0.952c0.143,0,0.237-0.094,0.237-0.237v-0.95c0-0.144-0.095-0.239-0.237-0.239h-0.952
				c-0.143,0-0.238,0.096-0.238,0.239v0.95C77.539,100.29,77.634,100.383,77.777,100.383z"/>
			<path fill="#015697" d="M79.729,98.528h0.952c0.143,0,0.237-0.095,0.237-0.238v-0.952c0-0.143-0.095-0.238-0.237-0.238h-0.952
				c-0.143,0-0.238,0.095-0.238,0.238v0.952C79.49,98.386,79.585,98.528,79.729,98.528z"/>
			<path fill="#015697" d="M79.729,100.383h0.952c0.143,0,0.237-0.094,0.237-0.237v-0.95c0-0.144-0.095-0.239-0.237-0.239h-0.952
				c-0.143,0-0.238,0.096-0.238,0.239v0.95C79.49,100.29,79.585,100.383,79.729,100.383z"/>
			<path fill="#015697" d="M85.439,94.388l-1.999-3.426c-0.143-0.238-0.381-0.381-0.619-0.381h-4.806v-1.284l0.476,0.333
				c0.143,0.096,0.286,0.144,0.429,0.144c0.238,0,0.428-0.096,0.571-0.286c0.238-0.333,0.143-0.761-0.143-0.999l-4.188-3.045
				c-0.238-0.19-0.572-0.19-0.857,0l-4.188,3.045c-0.333,0.238-0.381,0.666-0.143,0.999c0.237,0.333,0.667,0.381,0.999,0.143
				l0.477-0.333v1.284h-4.807c-0.238,0-0.476,0.143-0.619,0.381l-2.046,3.521c-0.143,0.238-0.143,0.476,0,0.714
				c0.143,0.239,0.38,0.381,0.619,0.381h1.475v6.661c0,0.382,0.333,0.715,0.714,0.715h15.894c0.381,0,0.714-0.333,0.714-0.715
				v-6.661h1.475l0,0c0.38,0,0.713-0.333,0.713-0.714C85.581,94.674,85.533,94.531,85.439,94.388z M74.731,86.917l1.856,1.333
				c0,0,0,0,0,0.047v2.237h-3.711v-2.237c0,0,0,0,0-0.047L74.731,86.917z M81.965,101.526H76.73v-2.807
				c0-1.095-0.904-1.952-1.951-1.952s-1.951,0.905-1.951,1.952v2.807h-5.234v-5.947h14.467L81.965,101.526L81.965,101.526z"/>
		</g>
	</g>
</g>
<g>
	<circle fill="none" stroke="#015697" stroke-width="2" stroke-miterlimit="10" cx="113.225" cy="147.709" r="13.118"/>
	<g>
		<g>
			<path fill="#015697" d="M107.283,151.112h0.952c0.143,0,0.238-0.096,0.238-0.238v-0.951c0-0.144-0.095-0.238-0.238-0.238h-0.952
				c-0.143,0-0.238,0.095-0.238,0.238v0.951C107.045,150.969,107.141,151.112,107.283,151.112z"/>
			<path fill="#015697" d="M107.283,152.966h0.952c0.143,0,0.238-0.094,0.238-0.237v-0.95c0-0.144-0.095-0.239-0.238-0.239h-0.952
				c-0.143,0-0.238,0.096-0.238,0.239v0.95C107.045,152.873,107.141,152.966,107.283,152.966z"/>
			<path fill="#015697" d="M109.234,151.112h0.952c0.143,0,0.238-0.096,0.238-0.238v-0.951c0-0.144-0.095-0.238-0.238-0.238h-0.952
				c-0.143,0-0.238,0.095-0.238,0.238v0.951C108.997,150.969,109.092,151.112,109.234,151.112z"/>
			<path fill="#015697" d="M109.234,152.966h0.952c0.143,0,0.238-0.094,0.238-0.237v-0.95c0-0.144-0.095-0.239-0.238-0.239h-0.952
				c-0.143,0-0.238,0.096-0.238,0.239v0.95C108.997,152.873,109.092,152.966,109.234,152.966z"/>
			<path fill="#015697" d="M116.277,151.112h0.952c0.143,0,0.237-0.096,0.237-0.238v-0.951c0-0.144-0.095-0.238-0.237-0.238h-0.952
				c-0.143,0-0.238,0.095-0.238,0.238v0.951C116.039,150.969,116.134,151.112,116.277,151.112z"/>
			<path fill="#015697" d="M116.277,152.966h0.952c0.143,0,0.237-0.094,0.237-0.237v-0.95c0-0.144-0.095-0.239-0.237-0.239h-0.952
				c-0.143,0-0.238,0.096-0.238,0.239v0.95C116.039,152.873,116.134,152.966,116.277,152.966z"/>
			<path fill="#015697" d="M118.229,151.112h0.952c0.143,0,0.237-0.096,0.237-0.238v-0.951c0-0.144-0.095-0.238-0.237-0.238h-0.952
				c-0.143,0-0.238,0.095-0.238,0.238v0.951C117.99,150.969,118.085,151.112,118.229,151.112z"/>
			<path fill="#015697" d="M118.229,152.966h0.952c0.143,0,0.237-0.094,0.237-0.237v-0.95c0-0.144-0.095-0.239-0.237-0.239h-0.952
				c-0.143,0-0.238,0.096-0.238,0.239v0.95C117.99,152.873,118.085,152.966,118.229,152.966z"/>
			<path fill="#015697" d="M123.939,146.971l-1.999-3.426c-0.143-0.238-0.381-0.381-0.619-0.381h-4.806v-1.285l0.476,0.333
				c0.143,0.096,0.286,0.144,0.429,0.144c0.238,0,0.428-0.096,0.571-0.286c0.238-0.333,0.143-0.761-0.143-0.999l-4.188-3.045
				c-0.238-0.191-0.572-0.191-0.857,0l-4.188,3.045c-0.333,0.238-0.381,0.666-0.143,0.999c0.237,0.333,0.667,0.382,0.999,0.143
				l0.477-0.333v1.285h-4.807c-0.238,0-0.476,0.143-0.619,0.381l-2.046,3.521c-0.143,0.237-0.143,0.476,0,0.713
				c0.143,0.239,0.38,0.382,0.619,0.382h1.475v6.661c0,0.382,0.333,0.715,0.714,0.715h15.894c0.381,0,0.714-0.333,0.714-0.715
				v-6.661h1.475l0,0c0.38,0,0.713-0.333,0.713-0.714C124.081,147.256,124.033,147.114,123.939,146.971z M113.231,139.5l1.856,1.332
				c0,0,0,0,0,0.047v2.238h-3.711v-2.238c0,0,0,0,0-0.047L113.231,139.5z M120.465,154.109h-5.235v-2.807
				c0-1.095-0.904-1.952-1.951-1.952s-1.951,0.905-1.951,1.952v2.807h-5.234v-5.947h14.467L120.465,154.109L120.465,154.109z"/>
		</g>
	</g>
</g>
<g>
	<circle fill="none" stroke="#015697" stroke-width="2" stroke-miterlimit="10" cx="179.927" cy="135.876" r="13.118"/>
	<g>
		<g>
			<path fill="#015697" d="M173.985,139.279h0.951c0.144,0,0.238-0.096,0.238-0.238v-0.951c0-0.144-0.095-0.238-0.238-0.238h-0.951
				c-0.143,0-0.238,0.095-0.238,0.238v0.951C173.747,139.136,173.842,139.279,173.985,139.279z"/>
			<path fill="#015697" d="M173.985,141.133h0.951c0.144,0,0.238-0.094,0.238-0.237v-0.95c0-0.144-0.095-0.239-0.238-0.239h-0.951
				c-0.143,0-0.238,0.096-0.238,0.239v0.95C173.747,141.04,173.842,141.133,173.985,141.133z"/>
			<path fill="#015697" d="M175.936,139.279h0.951c0.143,0,0.238-0.096,0.238-0.238v-0.951c0-0.144-0.096-0.238-0.238-0.238h-0.951
				c-0.143,0-0.238,0.095-0.238,0.238v0.951C175.698,139.136,175.793,139.279,175.936,139.279z"/>
			<path fill="#015697" d="M175.936,141.133h0.951c0.143,0,0.238-0.094,0.238-0.237v-0.95c0-0.144-0.096-0.239-0.238-0.239h-0.951
				c-0.143,0-0.238,0.096-0.238,0.239v0.95C175.698,141.04,175.793,141.133,175.936,141.133z"/>
			<path fill="#015697" d="M182.979,139.279h0.951c0.143,0,0.238-0.096,0.238-0.238v-0.951c0-0.144-0.096-0.238-0.238-0.238h-0.951
				c-0.143,0-0.238,0.095-0.238,0.238v0.951C182.741,139.136,182.836,139.279,182.979,139.279z"/>
			<path fill="#015697" d="M182.979,141.133h0.951c0.143,0,0.238-0.094,0.238-0.237v-0.95c0-0.144-0.096-0.239-0.238-0.239h-0.951
				c-0.143,0-0.238,0.096-0.238,0.239v0.95C182.741,141.04,182.836,141.133,182.979,141.133z"/>
			<path fill="#015697" d="M184.93,139.279h0.951c0.143,0,0.238-0.096,0.238-0.238v-0.951c0-0.144-0.096-0.238-0.238-0.238h-0.951
				c-0.143,0-0.238,0.095-0.238,0.238v0.951C184.692,139.136,184.788,139.279,184.93,139.279z"/>
			<path fill="#015697" d="M184.93,141.133h0.951c0.143,0,0.238-0.094,0.238-0.237v-0.95c0-0.144-0.096-0.239-0.238-0.239h-0.951
				c-0.143,0-0.238,0.096-0.238,0.239v0.95C184.692,141.04,184.788,141.133,184.93,141.133z"/>
			<path fill="#015697" d="M190.641,135.138l-2-3.426c-0.143-0.238-0.381-0.381-0.618-0.381h-4.806v-1.285l0.475,0.333
				c0.143,0.096,0.287,0.144,0.43,0.144c0.237,0,0.428-0.096,0.57-0.286c0.238-0.333,0.143-0.761-0.143-0.999l-4.188-3.045
				c-0.238-0.191-0.572-0.191-0.857,0l-4.188,3.045c-0.333,0.238-0.381,0.666-0.143,0.999s0.667,0.382,0.999,0.143l0.477-0.333
				v1.285h-4.807c-0.237,0-0.476,0.143-0.618,0.381l-2.047,3.521c-0.143,0.237-0.143,0.476,0,0.713
				c0.143,0.239,0.381,0.382,0.619,0.382h1.475v6.661c0,0.382,0.334,0.715,0.715,0.715h15.893c0.381,0,0.715-0.333,0.715-0.715
				v-6.661h1.475l0,0c0.381,0,0.714-0.333,0.714-0.714C190.783,135.423,190.735,135.281,190.641,135.138z M179.933,127.667
				L181.79,129c0,0,0,0,0,0.047v2.238h-3.712v-2.238c0,0,0,0,0-0.047L179.933,127.667z M187.167,142.276h-5.234v-2.807
				c0-1.095-0.904-1.952-1.951-1.952s-1.951,0.905-1.951,1.952v2.807h-5.234v-5.947h14.467L187.167,142.276L187.167,142.276z"/>
		</g>
	</g>
</g>
<g>
	<circle fill="none" stroke="#015697" stroke-width="2" stroke-miterlimit="10" cx="199.226" cy="85.495" r="13.119"/>
	<g>
		<g>
			<path fill="#015697" d="M193.284,88.896h0.951c0.143,0,0.238-0.095,0.238-0.238v-0.952c0-0.143-0.096-0.238-0.238-0.238h-0.951
				c-0.143,0-0.238,0.095-0.238,0.238v0.952C193.045,88.754,193.141,88.896,193.284,88.896z"/>
			<path fill="#015697" d="M193.284,90.752h0.951c0.143,0,0.238-0.095,0.238-0.238v-0.951c0-0.143-0.096-0.239-0.238-0.239h-0.951
				c-0.143,0-0.238,0.096-0.238,0.239v0.951C193.045,90.657,193.141,90.752,193.284,90.752z"/>
			<path fill="#015697" d="M195.235,88.896h0.951c0.143,0,0.238-0.095,0.238-0.238v-0.952c0-0.143-0.096-0.238-0.238-0.238h-0.951
				c-0.143,0-0.238,0.095-0.238,0.238v0.952C194.997,88.754,195.092,88.896,195.235,88.896z"/>
			<path fill="#015697" d="M195.235,90.752h0.951c0.143,0,0.238-0.095,0.238-0.238v-0.951c0-0.143-0.096-0.239-0.238-0.239h-0.951
				c-0.143,0-0.238,0.096-0.238,0.239v0.951C194.997,90.657,195.092,90.752,195.235,90.752z"/>
			<path fill="#015697" d="M202.278,88.896h0.951c0.143,0,0.237-0.095,0.237-0.238v-0.952c0-0.143-0.095-0.238-0.237-0.238h-0.951
				c-0.144,0-0.238,0.095-0.238,0.238v0.952C202.04,88.754,202.134,88.896,202.278,88.896z"/>
			<path fill="#015697" d="M202.278,90.752h0.951c0.143,0,0.237-0.095,0.237-0.238v-0.951c0-0.143-0.095-0.239-0.237-0.239h-0.951
				c-0.144,0-0.238,0.096-0.238,0.239v0.951C202.04,90.657,202.134,90.752,202.278,90.752z"/>
			<path fill="#015697" d="M204.229,88.896h0.951c0.143,0,0.237-0.095,0.237-0.238v-0.952c0-0.143-0.095-0.238-0.237-0.238h-0.951
				c-0.144,0-0.238,0.095-0.238,0.238v0.952C203.991,88.754,204.085,88.896,204.229,88.896z"/>
			<path fill="#015697" d="M204.229,90.752h0.951c0.143,0,0.237-0.095,0.237-0.238v-0.951c0-0.143-0.095-0.239-0.237-0.239h-0.951
				c-0.144,0-0.238,0.096-0.238,0.239v0.951C203.991,90.657,204.085,90.752,204.229,90.752z"/>
			<path fill="#015697" d="M209.939,84.756l-1.999-3.426c-0.143-0.238-0.381-0.381-0.619-0.381h-4.806v-1.284l0.476,0.333
				c0.143,0.096,0.286,0.144,0.429,0.144c0.237,0,0.429-0.096,0.571-0.286c0.238-0.333,0.143-0.761-0.143-0.999l-4.188-3.045
				c-0.238-0.19-0.572-0.19-0.857,0l-4.188,3.045c-0.334,0.238-0.381,0.666-0.143,0.999c0.237,0.333,0.666,0.381,0.998,0.143
				l0.477-0.333v1.284h-4.807c-0.237,0-0.475,0.143-0.618,0.381l-2.046,3.521c-0.143,0.238-0.143,0.476,0,0.714
				c0.143,0.239,0.381,0.381,0.619,0.381h1.475v6.661c0,0.381,0.333,0.715,0.714,0.715h15.894c0.381,0,0.715-0.333,0.715-0.715
				v-6.661h1.475l0,0c0.381,0,0.713-0.333,0.713-0.714C210.081,85.042,210.034,84.899,209.939,84.756z M199.231,77.286l1.856,1.333
				c0,0,0,0,0,0.047v2.237h-3.712v-2.237c0,0,0,0,0-0.047L199.231,77.286z M206.465,91.895h-5.235v-2.808
				c0-1.094-0.903-1.951-1.95-1.951s-1.951,0.905-1.951,1.951v2.808h-5.234v-5.948h14.467L206.465,91.895L206.465,91.895z"/>
		</g>
	</g>
</g>
<g>
	<g>
		<line fill="none" stroke="#015697" stroke-width="2" stroke-miterlimit="10" x1="39.177" y1="89.072" x2="40.164" y2="89.238"/>
		
			<line fill="none" stroke="#015697" stroke-width="2" stroke-miterlimit="10" stroke-dasharray="1.8495,1.8495" x1="41.987" y1="89.544" x2="59.314" y2="92.457"/>
		<line fill="none" stroke="#015697" stroke-width="2" stroke-miterlimit="10" x1="60.226" y1="92.61" x2="61.212" y2="92.776"/>
	</g>
</g>
<line fill="none" stroke="#015697" stroke-width="2" stroke-miterlimit="10" stroke-dasharray="2" x1="91.212" y1="40.299" x2="108.473" y2="44.655"/>
<line fill="none" stroke="#015697" stroke-width="2" stroke-miterlimit="10" stroke-dasharray="2" x1="146.104" y1="28.386" x2="131.31" y2="41.263"/>
<line fill="none" stroke="#015697" stroke-width="2" stroke-miterlimit="10" stroke-dasharray="2" x1="124.148" y1="61.815" x2="128.033" y2="75.429"/>
<line fill="none" stroke="#015697" stroke-width="2" stroke-miterlimit="10" stroke-dasharray="2" x1="87.844" y1="97.51" x2="110.332" y2="97.51"/>
<line fill="none" stroke="#015697" stroke-width="2" stroke-miterlimit="10" stroke-dasharray="2" x1="71.21" y1="107.764" x2="63.87" y2="134.394"/>
<line fill="none" stroke="#015697" stroke-width="2" stroke-miterlimit="10" stroke-dasharray="2" x1="77.467" y1="148.995" x2="99.842" y2="148.995"/>
<line fill="none" stroke="#015697" stroke-width="2" stroke-miterlimit="10" stroke-dasharray="2" x1="156.77" y1="116.566" x2="169.071" y2="128.511"/>
<line fill="none" stroke="#015697" stroke-width="2" stroke-miterlimit="10" stroke-dasharray="2" x1="161.912" y1="94.323" x2="186.45" y2="88.469"/>
<line fill="none" stroke="#015697" stroke-width="2" stroke-miterlimit="10" stroke-dasharray="2" x1="227.574" y1="41.263" x2="205.608" y2="74.034"/>
<line fill="none" stroke="#015697" stroke-width="2" stroke-miterlimit="10" stroke-dasharray="2" x1="205.608" y1="96.956" x2="220.549" y2="116.566"/>
<line fill="none" stroke="#015697" stroke-width="2" stroke-miterlimit="10" stroke-dasharray="2" x1="174.18" y1="147.67" x2="166.095" y2="166.205"/>
</svg>
